{"asset":{"version":"2.0","generator":"EDUTU original articulated expedition climber build 2026-10"},"scene":0,"scenes":[{"nodes":[0]}],"nodes":[{"name":"Root","translation":[0,0,0],"children":[1]},{"name":"Hip pivot","translation":[0,1.46,0],"mesh":19,"children":[2,24,35]},{"name":"Spine","translation":[0,0.34,0],"mesh":0,"children":[3,4,5,6,7,8,9,10,11,12,13,18,29]},{"name":"Chest armor","translation":[0,0.24,0.07],"mesh":1},{"name":"Climber belt","translation":[0,-0.35,0],"mesh":11},{"name":"Harness clasp","translation":[0,-0.35,0.27],"mesh":9},{"name":"Backpack","translation":[0,0.27,-0.42],"mesh":6},{"name":"Backpack lid","translation":[0,0.65,-0.43],"mesh":7},{"name":"Rope coil","translation":[-0.37,0.12,-0.45],"mesh":8},{"name":"Chest strap -1","translation":[-0.2,0.18,0.31],"mesh":10},{"name":"Utility pouch -1","translation":[-0.35,-0.4,0.22],"mesh":12},{"name":"Chest strap 1","translation":[0.2,0.18,0.31],"mesh":10},{"name":"Utility pouch 1","translation":[0.35,-0.4,0.22],"mesh":12},{"name":"Hood","translation":[0,0.64,0],"mesh":5,"children":[14]},{"name":"Head rotation","translation":[0,0.34,0.01],"mesh":2,"children":[15,16,17]},{"name":"Protective helmet","translation":[0,0.17,-0.02],"mesh":3},{"name":"Face visor","translation":[0,0.06,0.24],"mesh":4},{"name":"Head lamp","translation":[0,0.27,0.27],"mesh":13},{"name":"Left Shoulder","translation":[-0.46,0.46,0],"mesh":18,"children":[19,20]},{"name":"Upper arm -1","translation":[-0.02,-0.2,0],"mesh":14},{"name":"Left Elbow","translation":[-0.02,-0.49,0],"mesh":15,"children":[21,22,23]},{"name":"Lower arm -1","translation":[0,-0.04,0],"mesh":16},{"name":"Climbing glove -1","translation":[0,-0.49,0.01],"mesh":17},{"name":"Reflective cuff -1","translation":[0,-0.31,0.15],"mesh":26},{"name":"Left Hip","translation":[-0.22,-0.1,0],"mesh":20,"children":[25]},{"name":"Left Knee","translation":[0,-0.64,0],"mesh":21,"children":[26,27]},{"name":"Lower leg -1","translation":[0,-0.02,0],"mesh":22},{"name":"Boot -1","translation":[0,-0.55,0.14],"mesh":23,"children":[28]},{"name":"Tread sole -1","translation":[0,-0.12,0.025],"mesh":24},{"name":"Right Shoulder","translation":[0.46,0.46,0],"mesh":18,"children":[30,31]},{"name":"Upper arm 1","translation":[0.02,-0.2,0],"mesh":14},{"name":"Right Elbow","translation":[0.02,-0.49,0],"mesh":15,"children":[32,33,34]},{"name":"Lower arm 1","translation":[0,-0.04,0],"mesh":16},{"name":"Climbing glove 1","translation":[0,-0.49,0.01],"mesh":17},{"name":"Reflective cuff 1","translation":[0,-0.31,0.15],"mesh":26},{"name":"Right Hip","translation":[0.22,-0.1,0],"mesh":20,"children":[36]},{"name":"Right Knee","translation":[0,-0.64,0],"mesh":21,"children":[37,38]},{"name":"Lower leg 1","translation":[0,-0.02,0],"mesh":22},{"name":"Boot 1","translation":[0,-0.55,0.14],"mesh":23,"children":[39]},{"name":"Tread sole 1","translation":[0,-0.12,0.025],"mesh":24}],"meshes":[{"name":"tailored torso","primitives":[{"attributes":{"POSITION":0,"NORMAL":1},"indices":2,"material":0}]},{"name":"protective cuirass","primitives":[{"attributes":{"POSITION":3,"NORMAL":4},"indices":5,"material":6}]},{"name":"uncovered face","primitives":[{"attributes":{"POSITION":6,"NORMAL":7},"indices":8,"material":5}]},{"name":"helmet shell","primitives":[{"attributes":{"POSITION":9,"NORMAL":10},"indices":11,"material":1}]},{"name":"glass visor","primitives":[{"attributes":{"POSITION":12,"NORMAL":13},"indices":14,"material":4}]},{"name":"hood collar","primitives":[{"attributes":{"POSITION":15,"NORMAL":16},"indices":17,"material":1}]},{"name":"mountaineering pack","primitives":[{"attributes":{"POSITION":18,"NORMAL":19},"indices":20,"material":2}]},{"name":"pack roll","primitives":[{"attributes":{"POSITION":21,"NORMAL":22},"indices":23,"material":3}]},{"name":"coiled rope","primitives":[{"attributes":{"POSITION":24,"NORMAL":25},"indices":26,"material":7}]},{"name":"harness buckle","primitives":[{"attributes":{"POSITION":27,"NORMAL":28},"indices":29,"material":3}]},{"name":"woven strap","primitives":[{"attributes":{"POSITION":30,"NORMAL":31},"indices":32,"material":2}]},{"name":"expedition belt","primitives":[{"attributes":{"POSITION":33,"NORMAL":34},"indices":35,"material":2}]},{"name":"gear pouch","primitives":[{"attributes":{"POSITION":36,"NORMAL":37},"indices":38,"material":2}]},{"name":"helmet lamp","primitives":[{"attributes":{"POSITION":39,"NORMAL":40},"indices":41,"material":4}]},{"name":"textile upper arm","primitives":[{"attributes":{"POSITION":42,"NORMAL":43},"indices":44,"material":0}]},{"name":"arm articulation","primitives":[{"attributes":{"POSITION":45,"NORMAL":46},"indices":47,"material":3}]},{"name":"gloved forearm","primitives":[{"attributes":{"POSITION":48,"NORMAL":49},"indices":50,"material":2}]},{"name":"glove hand","primitives":[{"attributes":{"POSITION":51,"NORMAL":52},"indices":53,"material":8}]},{"name":"shoulder plate","primitives":[{"attributes":{"POSITION":54,"NORMAL":55},"indices":56,"material":6}]},{"name":"hip armor","primitives":[{"attributes":{"POSITION":57,"NORMAL":58},"indices":59,"material":1}]},{"name":"reinforced leg armor","primitives":[{"attributes":{"POSITION":60,"NORMAL":61},"indices":62,"material":1}]},{"name":"knee shield","primitives":[{"attributes":{"POSITION":63,"NORMAL":64},"indices":65,"material":6}]},{"name":"shin gaiter","primitives":[{"attributes":{"POSITION":66,"NORMAL":67},"indices":68,"material":0}]},{"name":"mountaineering boot","primitives":[{"attributes":{"POSITION":69,"NORMAL":70},"indices":71,"material":8}]},{"name":"boot outsole","primitives":[{"attributes":{"POSITION":72,"NORMAL":73},"indices":74,"material":1}]},{"name":"climbing hammer","primitives":[{"attributes":{"POSITION":75,"NORMAL":76},"indices":77,"material":3}]},{"name":"reflective equipment trim","primitives":[{"attributes":{"POSITION":78,"NORMAL":79},"indices":80,"material":3}]}],"materials":[{"name":"Expedition teal textile","pbrMetallicRoughness":{"baseColorFactor":[0.075,0.22,0.25,1],"metallicFactor":0.03,"roughnessFactor":0.88},"doubleSided":false},{"name":"Reinforced deep textile","pbrMetallicRoughness":{"baseColorFactor":[0.035,0.065,0.09,1],"metallicFactor":0.08,"roughnessFactor":0.83},"doubleSided":false},{"name":"Weathered climbing leather","pbrMetallicRoughness":{"baseColorFactor":[0.31,0.17,0.11,1],"metallicFactor":0.06,"roughnessFactor":0.83},"doubleSided":false},{"name":"Bronze safety fittings","pbrMetallicRoughness":{"baseColorFactor":[0.65,0.45,0.24,1],"metallicFactor":0.72,"roughnessFactor":0.28},"doubleSided":false},{"name":"Glazed visor","pbrMetallicRoughness":{"baseColorFactor":[0.16,0.84,0.91,1],"metallicFactor":0.48,"roughnessFactor":0.19},"emissiveFactor":[0.015,0.28,0.36],"doubleSided":false},{"name":"Warm skin","pbrMetallicRoughness":{"baseColorFactor":[0.71,0.47,0.3,1],"metallicFactor":0.01,"roughnessFactor":0.84},"doubleSided":false},{"name":"Stone-blue armor","pbrMetallicRoughness":{"baseColorFactor":[0.26,0.39,0.45,1],"metallicFactor":0.52,"roughnessFactor":0.47},"doubleSided":false},{"name":"Rope beige","pbrMetallicRoughness":{"baseColorFactor":[0.66,0.49,0.29,1],"metallicFactor":0.1,"roughnessFactor":0.9},"doubleSided":false},{"name":"Boot soles","pbrMetallicRoughness":{"baseColorFactor":[0.035,0.042,0.048,1],"metallicFactor":0.05,"roughnessFactor":0.91},"doubleSided":false}],"bufferViews":[{"buffer":0,"byteOffset":0,"byteLength":1404,"target":34962},{"buffer":0,"byteOffset":1404,"byteLength":1404,"target":34962},{"buffer":0,"byteOffset":2808,"byteLength":1152,"target":34963},{"buffer":0,"byteOffset":3960,"byteLength":1404,"target":34962},{"buffer":0,"byteOffset":5364,"byteLength":1404,"target":34962},{"buffer":0,"byteOffset":6768,"byteLength":1152,"target":34963},{"buffer":0,"byteOffset":7920,"byteLength":1404,"target":34962},{"buffer":0,"byteOffset":9324,"byteLength":1404,"target":34962},{"buffer":0,"byteOffset":10728,"byteLength":1152,"target":34963},{"buffer":0,"byteOffset":11880,"byteLength":1404,"target":34962},{"buffer":0,"byteOffset":13284,"byteLength":1404,"target":34962},{"buffer":0,"byteOffset":14688,"byteLength":1152,"target":34963},{"buffer":0,"byteOffset":15840,"byteLength":288,"target":34962},{"buffer":0,"byteOffset":16128,"byteLength":288,"target":34962},{"buffer":0,"byteOffset":16416,"byteLength":72,"target":34963},{"buffer":0,"byteOffset":16488,"byteLength":1404,"target":34962},{"buffer":0,"byteOffset":17892,"byteLength":1404,"target":34962},{"buffer":0,"byteOffset":19296,"byteLength":1152,"target":34963},{"buffer":0,"byteOffset":20448,"byteLength":288,"target":34962},{"buffer":0,"byteOffset":20736,"byteLength":288,"target":34962},{"buffer":0,"byteOffset":21024,"byteLength":72,"target":34963},{"buffer":0,"byteOffset":21096,"byteLength":288,"target":34962},{"buffer":0,"byteOffset":21384,"byteLength":288,"target":34962},{"buffer":0,"byteOffset":21672,"byteLength":72,"target":34963},{"buffer":0,"byteOffset":21744,"byteLength":1404,"target":34962},{"buffer":0,"byteOffset":23148,"byteLength":1404,"target":34962},{"buffer":0,"byteOffset":24552,"byteLength":1152,"target":34963},{"buffer":0,"byteOffset":25704,"byteLength":288,"target":34962},{"buffer":0,"byteOffset":25992,"byteLength":288,"target":34962},{"buffer":0,"byteOffset":26280,"byteLength":72,"target":34963},{"buffer":0,"byteOffset":26352,"byteLength":288,"target":34962},{"buffer":0,"byteOffset":26640,"byteLength":288,"target":34962},{"buffer":0,"byteOffset":26928,"byteLength":72,"target":34963},{"buffer":0,"byteOffset":27000,"byteLength":288,"target":34962},{"buffer":0,"byteOffset":27288,"byteLength":288,"target":34962},{"buffer":0,"byteOffset":27576,"byteLength":72,"target":34963},{"buffer":0,"byteOffset":27648,"byteLength":288,"target":34962},{"buffer":0,"byteOffset":27936,"byteLength":288,"target":34962},{"buffer":0,"byteOffset":28224,"byteLength":72,"target":34963},{"buffer":0,"byteOffset":28296,"byteLength":1404,"target":34962},{"buffer":0,"byteOffset":29700,"byteLength":1404,"target":34962},{"buffer":0,"byteOffset":31104,"byteLength":1152,"target":34963},{"buffer":0,"byteOffset":32256,"byteLength":336,"target":34962},{"buffer":0,"byteOffset":32592,"byteLength":336,"target":34962},{"buffer":0,"byteOffset":32928,"byteLength":288,"target":34963},{"buffer":0,"byteOffset":33216,"byteLength":1404,"target":34962},{"buffer":0,"byteOffset":34620,"byteLength":1404,"target":34962},{"buffer":0,"byteOffset":36024,"byteLength":1152,"target":34963},{"buffer":0,"byteOffset":37176,"byteLength":336,"target":34962},{"buffer":0,"byteOffset":37512,"byteLength":336,"target":34962},{"buffer":0,"byteOffset":37848,"byteLength":288,"target":34963},{"buffer":0,"byteOffset":38136,"byteLength":1404,"target":34962},{"buffer":0,"byteOffset":39540,"byteLength":1404,"target":34962},{"buffer":0,"byteOffset":40944,"byteLength":1152,"target":34963},{"buffer":0,"byteOffset":42096,"byteLength":1404,"target":34962},{"buffer":0,"byteOffset":43500,"byteLength":1404,"target":34962},{"buffer":0,"byteOffset":44904,"byteLength":1152,"target":34963},{"buffer":0,"byteOffset":46056,"byteLength":1404,"target":34962},{"buffer":0,"byteOffset":47460,"byteLength":1404,"target":34962},{"buffer":0,"byteOffset":48864,"byteLength":1152,"target":34963},{"buffer":0,"byteOffset":50016,"byteLength":336,"target":34962},{"buffer":0,"byteOffset":50352,"byteLength":336,"target":34962},{"buffer":0,"byteOffset":50688,"byteLength":288,"target":34963},{"buffer":0,"byteOffset":50976,"byteLength":1404,"target":34962},{"buffer":0,"byteOffset":52380,"byteLength":1404,"target":34962},{"buffer":0,"byteOffset":53784,"byteLength":1152,"target":34963},{"buffer":0,"byteOffset":54936,"byteLength":336,"target":34962},{"buffer":0,"byteOffset":55272,"byteLength":336,"target":34962},{"buffer":0,"byteOffset":55608,"byteLength":288,"target":34963},{"buffer":0,"byteOffset":55896,"byteLength":288,"target":34962},{"buffer":0,"byteOffset":56184,"byteLength":288,"target":34962},{"buffer":0,"byteOffset":56472,"byteLength":72,"target":34963},{"buffer":0,"byteOffset":56544,"byteLength":288,"target":34962},{"buffer":0,"byteOffset":56832,"byteLength":288,"target":34962},{"buffer":0,"byteOffset":57120,"byteLength":72,"target":34963},{"buffer":0,"byteOffset":57192,"byteLength":288,"target":34962},{"buffer":0,"byteOffset":57480,"byteLength":288,"target":34962},{"buffer":0,"byteOffset":57768,"byteLength":72,"target":34963},{"buffer":0,"byteOffset":57840,"byteLength":288,"target":34962},{"buffer":0,"byteOffset":58128,"byteLength":288,"target":34962},{"buffer":0,"byteOffset":58416,"byteLength":72,"target":34963},{"buffer":0,"byteOffset":58488,"byteLength":20},{"buffer":0,"byteOffset":58508,"byteLength":80},{"buffer":0,"byteOffset":58588,"byteLength":80},{"buffer":0,"byteOffset":58668,"byteLength":80},{"buffer":0,"byteOffset":58748,"byteLength":80},{"buffer":0,"byteOffset":58828,"byteLength":80},{"buffer":0,"byteOffset":58908,"byteLength":80},{"buffer":0,"byteOffset":58988,"byteLength":80},{"buffer":0,"byteOffset":59068,"byteLength":80},{"buffer":0,"byteOffset":59148,"byteLength":80},{"buffer":0,"byteOffset":59228,"byteLength":80},{"buffer":0,"byteOffset":59308,"byteLength":20},{"buffer":0,"byteOffset":59328,"byteLength":80},{"buffer":0,"byteOffset":59408,"byteLength":80},{"buffer":0,"byteOffset":59488,"byteLength":80},{"buffer":0,"byteOffset":59568,"byteLength":80},{"buffer":0,"byteOffset":59648,"byteLength":80},{"buffer":0,"byteOffset":59728,"byteLength":80},{"buffer":0,"byteOffset":59808,"byteLength":80},{"buffer":0,"byteOffset":59888,"byteLength":80},{"buffer":0,"byteOffset":59968,"byteLength":80},{"buffer":0,"byteOffset":60048,"byteLength":80},{"buffer":0,"byteOffset":60128,"byteLength":20},{"buffer":0,"byteOffset":60148,"byteLength":80},{"buffer":0,"byteOffset":60228,"byteLength":80},{"buffer":0,"byteOffset":60308,"byteLength":80},{"buffer":0,"byteOffset":60388,"byteLength":80},{"buffer":0,"byteOffset":60468,"byteLength":80},{"buffer":0,"byteOffset":60548,"byteLength":80},{"buffer":0,"byteOffset":60628,"byteLength":80},{"buffer":0,"byteOffset":60708,"byteLength":80},{"buffer":0,"byteOffset":60788,"byteLength":80},{"buffer":0,"byteOffset":60868,"byteLength":80},{"buffer":0,"byteOffset":60948,"byteLength":20},{"buffer":0,"byteOffset":60968,"byteLength":80},{"buffer":0,"byteOffset":61048,"byteLength":80},{"buffer":0,"byteOffset":61128,"byteLength":80},{"buffer":0,"byteOffset":61208,"byteLength":80},{"buffer":0,"byteOffset":61288,"byteLength":80},{"buffer":0,"byteOffset":61368,"byteLength":80},{"buffer":0,"byteOffset":61448,"byteLength":80},{"buffer":0,"byteOffset":61528,"byteLength":80},{"buffer":0,"byteOffset":61608,"byteLength":80},{"buffer":0,"byteOffset":61688,"byteLength":80},{"buffer":0,"byteOffset":61768,"byteLength":20},{"buffer":0,"byteOffset":61788,"byteLength":80},{"buffer":0,"byteOffset":61868,"byteLength":80},{"buffer":0,"byteOffset":61948,"byteLength":80},{"buffer":0,"byteOffset":62028,"byteLength":80},{"buffer":0,"byteOffset":62108,"byteLength":80},{"buffer":0,"byteOffset":62188,"byteLength":80},{"buffer":0,"byteOffset":62268,"byteLength":80},{"buffer":0,"byteOffset":62348,"byteLength":80},{"buffer":0,"byteOffset":62428,"byteLength":80},{"buffer":0,"byteOffset":62508,"byteLength":80},{"buffer":0,"byteOffset":62588,"byteLength":20},{"buffer":0,"byteOffset":62608,"byteLength":80},{"buffer":0,"byteOffset":62688,"byteLength":80},{"buffer":0,"byteOffset":62768,"byteLength":80},{"buffer":0,"byteOffset":62848,"byteLength":80},{"buffer":0,"byteOffset":62928,"byteLength":80},{"buffer":0,"byteOffset":63008,"byteLength":80},{"buffer":0,"byteOffset":63088,"byteLength":80},{"buffer":0,"byteOffset":63168,"byteLength":80},{"buffer":0,"byteOffset":63248,"byteLength":80},{"buffer":0,"byteOffset":63328,"byteLength":80}],"accessors":[{"bufferView":0,"componentType":5126,"count":117,"type":"VEC3","min":[-0.45,-0.58,-0.29],"max":[0.45,0.58,0.29]},{"bufferView":1,"componentType":5126,"count":117,"type":"VEC3","min":[-1,-1,-1],"max":[1,1,1]},{"bufferView":2,"componentType":5123,"count":576,"type":"SCALAR","min":[0],"max":[116]},{"bufferView":3,"componentType":5126,"count":117,"type":"VEC3","min":[-0.43,-0.4,-0.25],"max":[0.43,0.4,0.25]},{"bufferView":4,"componentType":5126,"count":117,"type":"VEC3","min":[-1,-1,-1],"max":[1,1,1]},{"bufferView":5,"componentType":5123,"count":576,"type":"SCALAR","min":[0],"max":[116]},{"bufferView":6,"componentType":5126,"count":117,"type":"VEC3","min":[-0.23,-0.27,-0.22],"max":[0.23,0.27,0.22]},{"bufferView":7,"componentType":5126,"count":117,"type":"VEC3","min":[-1,-1,-1],"max":[1,1,1]},{"bufferView":8,"componentType":5123,"count":576,"type":"SCALAR","min":[0],"max":[116]},{"bufferView":9,"componentType":5126,"count":117,"type":"VEC3","min":[-0.28,-0.19,-0.27],"max":[0.28,0.19,0.27]},{"bufferView":10,"componentType":5126,"count":117,"type":"VEC3","min":[-1,-1,-1],"max":[1,1,1]},{"bufferView":11,"componentType":5123,"count":576,"type":"SCALAR","min":[0],"max":[116]},{"bufferView":12,"componentType":5126,"count":24,"type":"VEC3","min":[-0.25,-0.065,-0.0275],"max":[0.25,0.065,0.0275]},{"bufferView":13,"componentType":5126,"count":24,"type":"VEC3","min":[-1,-1,-1],"max":[1,1,1]},{"bufferView":14,"componentType":5123,"count":36,"type":"SCALAR","min":[0],"max":[23]},{"bufferView":15,"componentType":5126,"count":117,"type":"VEC3","min":[-0.3,-0.12,-0.29],"max":[0.3,0.12,0.29]},{"bufferView":16,"componentType":5126,"count":117,"type":"VEC3","min":[-1,-1,-1],"max":[1,1,1]},{"bufferView":17,"componentType":5123,"count":576,"type":"SCALAR","min":[0],"max":[116]},{"bufferView":18,"componentType":5126,"count":24,"type":"VEC3","min":[-0.275,-0.375,-0.125],"max":[0.275,0.375,0.125]},{"bufferView":19,"componentType":5126,"count":24,"type":"VEC3","min":[-1,-1,-1],"max":[1,1,1]},{"bufferView":20,"componentType":5123,"count":36,"type":"SCALAR","min":[0],"max":[23]},{"bufferView":21,"componentType":5126,"count":24,"type":"VEC3","min":[-0.31,-0.075,-0.155],"max":[0.31,0.075,0.155]},{"bufferView":22,"componentType":5126,"count":24,"type":"VEC3","min":[-1,-1,-1],"max":[1,1,1]},{"bufferView":23,"componentType":5123,"count":36,"type":"SCALAR","min":[0],"max":[23]},{"bufferView":24,"componentType":5126,"count":117,"type":"VEC3","min":[-0.16,-0.16,-0.06],"max":[0.16,0.16,0.06]},{"bufferView":25,"componentType":5126,"count":117,"type":"VEC3","min":[-1,-1,-1],"max":[1,1,1]},{"bufferView":26,"componentType":5123,"count":576,"type":"SCALAR","min":[0],"max":[116]},{"bufferView":27,"componentType":5126,"count":24,"type":"VEC3","min":[-0.08,-0.06,-0.045],"max":[0.08,0.06,0.045]},{"bufferView":28,"componentType":5126,"count":24,"type":"VEC3","min":[-1,-1,-1],"max":[1,1,1]},{"bufferView":29,"componentType":5123,"count":36,"type":"SCALAR","min":[0],"max":[23]},{"bufferView":30,"componentType":5126,"count":24,"type":"VEC3","min":[-0.04,-0.5,-0.026],"max":[0.04,0.5,0.026]},{"bufferView":31,"componentType":5126,"count":24,"type":"VEC3","min":[-1,-1,-1],"max":[1,1,1]},{"bufferView":32,"componentType":5123,"count":36,"type":"SCALAR","min":[0],"max":[23]},{"bufferView":33,"componentType":5126,"count":24,"type":"VEC3","min":[-0.42,-0.065,-0.245],"max":[0.42,0.065,0.245]},{"bufferView":34,"componentType":5126,"count":24,"type":"VEC3","min":[-1,-1,-1],"max":[1,1,1]},{"bufferView":35,"componentType":5123,"count":36,"type":"SCALAR","min":[0],"max":[23]},{"bufferView":36,"componentType":5126,"count":24,"type":"VEC3","min":[-0.105,-0.11,-0.095],"max":[0.105,0.11,0.095]},{"bufferView":37,"componentType":5126,"count":24,"type":"VEC3","min":[-1,-1,-1],"max":[1,1,1]},{"bufferView":38,"componentType":5123,"count":36,"type":"SCALAR","min":[0],"max":[23]},{"bufferView":39,"componentType":5126,"count":117,"type":"VEC3","min":[-0.12,-0.1,-0.08],"max":[0.12,0.1,0.08]},{"bufferView":40,"componentType":5126,"count":117,"type":"VEC3","min":[-1,-1,-1],"max":[1,1,1]},{"bufferView":41,"componentType":5123,"count":576,"type":"SCALAR","min":[0],"max":[116]},{"bufferView":42,"componentType":5126,"count":28,"type":"VEC3","min":[-0.17,-0.52,-0.17],"max":[0.17,0,0.17]},{"bufferView":43,"componentType":5126,"count":28,"type":"VEC3","min":[-0.9962764483284692,-1,-0.9962764483284692],"max":[0.9962764483284692,1,0.9962764483284692]},{"bufferView":44,"componentType":5123,"count":144,"type":"SCALAR","min":[0],"max":[27]},{"bufferView":45,"componentType":5126,"count":117,"type":"VEC3","min":[-0.15,-0.15,-0.14],"max":[0.15,0.15,0.14]},{"bufferView":46,"componentType":5126,"count":117,"type":"VEC3","min":[-1,-1,-1],"max":[1,1,1]},{"bufferView":47,"componentType":5123,"count":576,"type":"SCALAR","min":[0],"max":[116]},{"bufferView":48,"componentType":5126,"count":28,"type":"VEC3","min":[-0.128,-0.46,-0.128],"max":[0.128,0,0.128]},{"bufferView":49,"componentType":5126,"count":28,"type":"VEC3","min":[-0.9990561583550596,-1,-0.9990561583550596],"max":[0.9990561583550596,1,0.9990561583550596]},{"bufferView":50,"componentType":5123,"count":144,"type":"SCALAR","min":[0],"max":[27]},{"bufferView":51,"componentType":5126,"count":117,"type":"VEC3","min":[-0.12,-0.16,-0.15],"max":[0.12,0.16,0.15]},{"bufferView":52,"componentType":5126,"count":117,"type":"VEC3","min":[-1,-1,-1],"max":[1,1,1]},{"bufferView":53,"componentType":5123,"count":576,"type":"SCALAR","min":[0],"max":[116]},{"bufferView":54,"componentType":5126,"count":117,"type":"VEC3","min":[-0.22,-0.18,-0.23],"max":[0.22,0.18,0.23]},{"bufferView":55,"componentType":5126,"count":117,"type":"VEC3","min":[-1,-1,-1],"max":[1,1,1]},{"bufferView":56,"componentType":5123,"count":576,"type":"SCALAR","min":[0],"max":[116]},{"bufferView":57,"componentType":5126,"count":117,"type":"VEC3","min":[-0.44,-0.22,-0.27],"max":[0.44,0.22,0.27]},{"bufferView":58,"componentType":5126,"count":117,"type":"VEC3","min":[-1,-1,-1],"max":[1,1,1]},{"bufferView":59,"componentType":5123,"count":576,"type":"SCALAR","min":[0],"max":[116]},{"bufferView":60,"componentType":5126,"count":28,"type":"VEC3","min":[-0.23,-0.65,-0.23],"max":[0.23,0,0.23]},{"bufferView":61,"componentType":5126,"count":28,"type":"VEC3","min":[-0.9925110109136313,-1,-0.9925110109136313],"max":[0.9925110109136313,1,0.9925110109136313]},{"bufferView":62,"componentType":5123,"count":144,"type":"SCALAR","min":[0],"max":[27]},{"bufferView":63,"componentType":5126,"count":117,"type":"VEC3","min":[-0.2,-0.19,-0.17],"max":[0.2,0.19,0.17]},{"bufferView":64,"componentType":5126,"count":117,"type":"VEC3","min":[-1,-1,-1],"max":[1,1,1]},{"bufferView":65,"componentType":5123,"count":576,"type":"SCALAR","min":[0],"max":[116]},{"bufferView":66,"componentType":5126,"count":28,"type":"VEC3","min":[-0.16,-0.52,-0.16],"max":[0.16,0,0.16]},{"bufferView":67,"componentType":5126,"count":28,"type":"VEC3","min":[-0.9954090291002812,-1,-0.9954090291002812],"max":[0.9954090291002812,1,0.9954090291002812]},{"bufferView":68,"componentType":5123,"count":144,"type":"SCALAR","min":[0],"max":[27]},{"bufferView":69,"componentType":5126,"count":24,"type":"VEC3","min":[-0.16,-0.11,-0.23],"max":[0.16,0.11,0.23]},{"bufferView":70,"componentType":5126,"count":24,"type":"VEC3","min":[-1,-1,-1],"max":[1,1,1]},{"bufferView":71,"componentType":5123,"count":36,"type":"SCALAR","min":[0],"max":[23]},{"bufferView":72,"componentType":5126,"count":24,"type":"VEC3","min":[-0.165,-0.035,-0.26],"max":[0.165,0.035,0.26]},{"bufferView":73,"componentType":5126,"count":24,"type":"VEC3","min":[-1,-1,-1],"max":[1,1,1]},{"bufferView":74,"componentType":5123,"count":36,"type":"SCALAR","min":[0],"max":[23]},{"bufferView":75,"componentType":5126,"count":24,"type":"VEC3","min":[-0.055,-0.26,-0.05],"max":[0.055,0.26,0.05]},{"bufferView":76,"componentType":5126,"count":24,"type":"VEC3","min":[-1,-1,-1],"max":[1,1,1]},{"bufferView":77,"componentType":5123,"count":36,"type":"SCALAR","min":[0],"max":[23]},{"bufferView":78,"componentType":5126,"count":24,"type":"VEC3","min":[-0.145,-0.0175,-0.015],"max":[0.145,0.0175,0.015]},{"bufferView":79,"componentType":5126,"count":24,"type":"VEC3","min":[-1,-1,-1],"max":[1,1,1]},{"bufferView":80,"componentType":5123,"count":36,"type":"SCALAR","min":[0],"max":[23]},{"bufferView":81,"componentType":5126,"count":5,"type":"SCALAR","min":[0],"max":[2.2]},{"bufferView":82,"componentType":5126,"count":5,"type":"VEC4"},{"bufferView":83,"componentType":5126,"count":5,"type":"VEC4"},{"bufferView":84,"componentType":5126,"count":5,"type":"VEC4"},{"bufferView":85,"componentType":5126,"count":5,"type":"VEC4"},{"bufferView":86,"componentType":5126,"count":5,"type":"VEC4"},{"bufferView":87,"componentType":5126,"count":5,"type":"VEC4"},{"bufferView":88,"componentType":5126,"count":5,"type":"VEC4"},{"bufferView":89,"componentType":5126,"count":5,"type":"VEC4"},{"bufferView":90,"componentType":5126,"count":5,"type":"VEC4"},{"bufferView":91,"componentType":5126,"count":5,"type":"VEC4"},{"bufferView":92,"componentType":5126,"count":5,"type":"SCALAR","min":[0],"max":[0.9]},{"bufferView":93,"componentType":5126,"count":5,"type":"VEC4"},{"bufferView":94,"componentType":5126,"count":5,"type":"VEC4"},{"bufferView":95,"componentType":5126,"count":5,"type":"VEC4"},{"bufferView":96,"componentType":5126,"count":5,"type":"VEC4"},{"bufferView":97,"componentType":5126,"count":5,"type":"VEC4"},{"bufferView":98,"componentType":5126,"count":5,"type":"VEC4"},{"bufferView":99,"componentType":5126,"count":5,"type":"VEC4"},{"bufferView":100,"componentType":5126,"count":5,"type":"VEC4"},{"bufferView":101,"componentType":5126,"count":5,"type":"VEC4"},{"bufferView":102,"componentType":5126,"count":5,"type":"VEC4"},{"bufferView":103,"componentType":5126,"count":5,"type":"SCALAR","min":[0],"max":[0.85]},{"bufferView":104,"componentType":5126,"count":5,"type":"VEC4"},{"bufferView":105,"componentType":5126,"count":5,"type":"VEC4"},{"bufferView":106,"componentType":5126,"count":5,"type":"VEC4"},{"bufferView":107,"componentType":5126,"count":5,"type":"VEC4"},{"bufferView":108,"componentType":5126,"count":5,"type":"VEC4"},{"bufferView":109,"componentType":5126,"count":5,"type":"VEC4"},{"bufferView":110,"componentType":5126,"count":5,"type":"VEC4"},{"bufferView":111,"componentType":5126,"count":5,"type":"VEC4"},{"bufferView":112,"componentType":5126,"count":5,"type":"VEC4"},{"bufferView":113,"componentType":5126,"count":5,"type":"VEC4"},{"bufferView":114,"componentType":5126,"count":5,"type":"SCALAR","min":[0],"max":[0.9]},{"bufferView":115,"componentType":5126,"count":5,"type":"VEC4"},{"bufferView":116,"componentType":5126,"count":5,"type":"VEC4"},{"bufferView":117,"componentType":5126,"count":5,"type":"VEC4"},{"bufferView":118,"componentType":5126,"count":5,"type":"VEC4"},{"bufferView":119,"componentType":5126,"count":5,"type":"VEC4"},{"bufferView":120,"componentType":5126,"count":5,"type":"VEC4"},{"bufferView":121,"componentType":5126,"count":5,"type":"VEC4"},{"bufferView":122,"componentType":5126,"count":5,"type":"VEC4"},{"bufferView":123,"componentType":5126,"count":5,"type":"VEC4"},{"bufferView":124,"componentType":5126,"count":5,"type":"VEC4"},{"bufferView":125,"componentType":5126,"count":5,"type":"SCALAR","min":[0],"max":[1.2]},{"bufferView":126,"componentType":5126,"count":5,"type":"VEC4"},{"bufferView":127,"componentType":5126,"count":5,"type":"VEC4"},{"bufferView":128,"componentType":5126,"count":5,"type":"VEC4"},{"bufferView":129,"componentType":5126,"count":5,"type":"VEC4"},{"bufferView":130,"componentType":5126,"count":5,"type":"VEC4"},{"bufferView":131,"componentType":5126,"count":5,"type":"VEC4"},{"bufferView":132,"componentType":5126,"count":5,"type":"VEC4"},{"bufferView":133,"componentType":5126,"count":5,"type":"VEC4"},{"bufferView":134,"componentType":5126,"count":5,"type":"VEC4"},{"bufferView":135,"componentType":5126,"count":5,"type":"VEC4"},{"bufferView":136,"componentType":5126,"count":5,"type":"SCALAR","min":[0],"max":[0.65]},{"bufferView":137,"componentType":5126,"count":5,"type":"VEC4"},{"bufferView":138,"componentType":5126,"count":5,"type":"VEC4"},{"bufferView":139,"componentType":5126,"count":5,"type":"VEC4"},{"bufferView":140,"componentType":5126,"count":5,"type":"VEC4"},{"bufferView":141,"componentType":5126,"count":5,"type":"VEC4"},{"bufferView":142,"componentType":5126,"count":5,"type":"VEC4"},{"bufferView":143,"componentType":5126,"count":5,"type":"VEC4"},{"bufferView":144,"componentType":5126,"count":5,"type":"VEC4"},{"bufferView":145,"componentType":5126,"count":5,"type":"VEC4"},{"bufferView":146,"componentType":5126,"count":5,"type":"VEC4"}],"animations":[{"name":"Idle","samplers":[{"input":81,"output":82,"interpolation":"LINEAR"},{"input":81,"output":83,"interpolation":"LINEAR"},{"input":81,"output":84,"interpolation":"LINEAR"},{"input":81,"output":85,"interpolation":"LINEAR"},{"input":81,"output":86,"interpolation":"LINEAR"},{"input":81,"output":87,"interpolation":"LINEAR"},{"input":81,"output":88,"interpolation":"LINEAR"},{"input":81,"output":89,"interpolation":"LINEAR"},{"input":81,"output":90,"interpolation":"LINEAR"},{"input":81,"output":91,"interpolation":"LINEAR"}],"channels":[{"sampler":0,"target":{"node":2,"path":"rotation"}},{"sampler":1,"target":{"node":14,"path":"rotation"}},{"sampler":2,"target":{"node":18,"path":"rotation"}},{"sampler":3,"target":{"node":20,"path":"rotation"}},{"sampler":4,"target":{"node":24,"path":"rotation"}},{"sampler":5,"target":{"node":25,"path":"rotation"}},{"sampler":6,"target":{"node":29,"path":"rotation"}},{"sampler":7,"target":{"node":31,"path":"rotation"}},{"sampler":8,"target":{"node":35,"path":"rotation"}},{"sampler":9,"target":{"node":36,"path":"rotation"}}]},{"name":"Running","samplers":[{"input":92,"output":93,"interpolation":"LINEAR"},{"input":92,"output":94,"interpolation":"LINEAR"},{"input":92,"output":95,"interpolation":"LINEAR"},{"input":92,"output":96,"interpolation":"LINEAR"},{"input":92,"output":97,"interpolation":"LINEAR"},{"input":92,"output":98,"interpolation":"LINEAR"},{"input":92,"output":99,"interpolation":"LINEAR"},{"input":92,"output":100,"interpolation":"LINEAR"},{"input":92,"output":101,"interpolation":"LINEAR"},{"input":92,"output":102,"interpolation":"LINEAR"}],"channels":[{"sampler":0,"target":{"node":2,"path":"rotation"}},{"sampler":1,"target":{"node":14,"path":"rotation"}},{"sampler":2,"target":{"node":18,"path":"rotation"}},{"sampler":3,"target":{"node":20,"path":"rotation"}},{"sampler":4,"target":{"node":24,"path":"rotation"}},{"sampler":5,"target":{"node":25,"path":"rotation"}},{"sampler":6,"target":{"node":29,"path":"rotation"}},{"sampler":7,"target":{"node":31,"path":"rotation"}},{"sampler":8,"target":{"node":35,"path":"rotation"}},{"sampler":9,"target":{"node":36,"path":"rotation"}}]},{"name":"Jump","samplers":[{"input":103,"output":104,"interpolation":"LINEAR"},{"input":103,"output":105,"interpolation":"LINEAR"},{"input":103,"output":106,"interpolation":"LINEAR"},{"input":103,"output":107,"interpolation":"LINEAR"},{"input":103,"output":108,"interpolation":"LINEAR"},{"input":103,"output":109,"interpolation":"LINEAR"},{"input":103,"output":110,"interpolation":"LINEAR"},{"input":103,"output":111,"interpolation":"LINEAR"},{"input":103,"output":112,"interpolation":"LINEAR"},{"input":103,"output":113,"interpolation":"LINEAR"}],"channels":[{"sampler":0,"target":{"node":2,"path":"rotation"}},{"sampler":1,"target":{"node":14,"path":"rotation"}},{"sampler":2,"target":{"node":18,"path":"rotation"}},{"sampler":3,"target":{"node":20,"path":"rotation"}},{"sampler":4,"target":{"node":24,"path":"rotation"}},{"sampler":5,"target":{"node":25,"path":"rotation"}},{"sampler":6,"target":{"node":29,"path":"rotation"}},{"sampler":7,"target":{"node":31,"path":"rotation"}},{"sampler":8,"target":{"node":35,"path":"rotation"}},{"sampler":9,"target":{"node":36,"path":"rotation"}}]},{"name":"Fall","samplers":[{"input":114,"output":115,"interpolation":"LINEAR"},{"input":114,"output":116,"interpolation":"LINEAR"},{"input":114,"output":117,"interpolation":"LINEAR"},{"input":114,"output":118,"interpolation":"LINEAR"},{"input":114,"output":119,"interpolation":"LINEAR"},{"input":114,"output":120,"interpolation":"LINEAR"},{"input":114,"output":121,"interpolation":"LINEAR"},{"input":114,"output":122,"interpolation":"LINEAR"},{"input":114,"output":123,"interpolation":"LINEAR"},{"input":114,"output":124,"interpolation":"LINEAR"}],"channels":[{"sampler":0,"target":{"node":2,"path":"rotation"}},{"sampler":1,"target":{"node":14,"path":"rotation"}},{"sampler":2,"target":{"node":18,"path":"rotation"}},{"sampler":3,"target":{"node":20,"path":"rotation"}},{"sampler":4,"target":{"node":24,"path":"rotation"}},{"sampler":5,"target":{"node":25,"path":"rotation"}},{"sampler":6,"target":{"node":29,"path":"rotation"}},{"sampler":7,"target":{"node":31,"path":"rotation"}},{"sampler":8,"target":{"node":35,"path":"rotation"}},{"sampler":9,"target":{"node":36,"path":"rotation"}}]},{"name":"Climb","samplers":[{"input":125,"output":126,"interpolation":"LINEAR"},{"input":125,"output":127,"interpolation":"LINEAR"},{"input":125,"output":128,"interpolation":"LINEAR"},{"input":125,"output":129,"interpolation":"LINEAR"},{"input":125,"output":130,"interpolation":"LINEAR"},{"input":125,"output":131,"interpolation":"LINEAR"},{"input":125,"output":132,"interpolation":"LINEAR"},{"input":125,"output":133,"interpolation":"LINEAR"},{"input":125,"output":134,"interpolation":"LINEAR"},{"input":125,"output":135,"interpolation":"LINEAR"}],"channels":[{"sampler":0,"target":{"node":2,"path":"rotation"}},{"sampler":1,"target":{"node":14,"path":"rotation"}},{"sampler":2,"target":{"node":18,"path":"rotation"}},{"sampler":3,"target":{"node":20,"path":"rotation"}},{"sampler":4,"target":{"node":24,"path":"rotation"}},{"sampler":5,"target":{"node":25,"path":"rotation"}},{"sampler":6,"target":{"node":29,"path":"rotation"}},{"sampler":7,"target":{"node":31,"path":"rotation"}},{"sampler":8,"target":{"node":35,"path":"rotation"}},{"sampler":9,"target":{"node":36,"path":"rotation"}}]},{"name":"Punch","samplers":[{"input":136,"output":137,"interpolation":"LINEAR"},{"input":136,"output":138,"interpolation":"LINEAR"},{"input":136,"output":139,"interpolation":"LINEAR"},{"input":136,"output":140,"interpolation":"LINEAR"},{"input":136,"output":141,"interpolation":"LINEAR"},{"input":136,"output":142,"interpolation":"LINEAR"},{"input":136,"output":143,"interpolation":"LINEAR"},{"input":136,"output":144,"interpolation":"LINEAR"},{"input":136,"output":145,"interpolation":"LINEAR"},{"input":136,"output":146,"interpolation":"LINEAR"}],"channels":[{"sampler":0,"target":{"node":2,"path":"rotation"}},{"sampler":1,"target":{"node":14,"path":"rotation"}},{"sampler":2,"target":{"node":18,"path":"rotation"}},{"sampler":3,"target":{"node":20,"path":"rotation"}},{"sampler":4,"target":{"node":24,"path":"rotation"}},{"sampler":5,"target":{"node":25,"path":"rotation"}},{"sampler":6,"target":{"node":29,"path":"rotation"}},{"sampler":7,"target":{"node":31,"path":"rotation"}},{"sampler":8,"target":{"node":35,"path":"rotation"}},{"sampler":9,"target":{"node":36,"path":"rotation"}}]}],"buffers":[{"byteLength":63408,"uri":"data:application/octet-stream;base64,"}]}